# xmcd
#
# Track frame offsets: 
#        150
#        17740
#        36370
#        55108
#        69815
#        89782
#        109050
#        123747
#        144422
#        163915
#
# Disc length: 2466 seconds
#
# Revision: 0
# Processed by: cddbd v1.5.2PL0 Copyright (c) Steve Scherf et al.
# Submitted via: ExactAudioCopy v0.99pb4
#
DISCID=8c09a00a
DTITLE=Smilin' Bobby and Hidden Charms - Big Legged Woman
DYEAR=2009
DGENRE=Blues
TTITLE0=I Play For Keeps
TTITLE1=I Didn T Know
TTITLE2=Cold Cold Feeling
TTITLE3=Little By Little
TTITLE4=Big Legged Woman
TTITLE5=I Got To Leave This Woman
TTITLE6=The Bobby Strut
TTITLE7=They Call Me A Dog
TTITLE8=You Don't Love Me
TTITLE9=You Are The One
EXTD=
EXTT0=
EXTT1=
EXTT2=
EXTT3=
EXTT4=
EXTT5=
EXTT6=
EXTT7=
EXTT8=
EXTT9=
PLAYORDER=
